<svg width="361" height="416" viewBox="0 0 361 416" fill="none" xmlns="http://www.w3.org/2000/svg">
<path d="M349.422 245.325H330.536C328.031 218.684 315.169 193.418 293.859 173.277C272.548 153.137 243.925 139.194 212.237 133.519V122.638C212.237 115.702 208.893 109.05 202.941 104.146C196.989 99.2417 188.917 96.4865 180.5 96.4865C172.083 96.4865 164.011 99.2417 158.059 104.146C152.107 109.05 148.763 115.702 148.763 122.638V133.519C117.075 139.194 88.4517 153.137 67.1412 173.277C45.8306 193.418 32.9686 218.684 30.4641 245.325H11.5779C8.5403 245.325 5.62716 246.32 3.47929 248.09C1.33141 249.859 0.124731 252.26 0.124731 254.763C0.124731 257.266 1.33141 259.666 3.47929 261.436C5.62716 263.206 8.5403 264.2 11.5779 264.2H349.445C352.483 264.2 355.396 263.206 357.544 261.436C359.692 259.666 360.898 257.266 360.898 254.763C360.898 252.26 359.692 249.859 357.544 248.09C355.396 246.32 352.483 245.325 349.445 245.325H349.422ZM171.67 122.638C171.67 120.708 172.6 118.857 174.256 117.493C175.912 116.128 178.158 115.362 180.5 115.362C182.842 115.362 185.088 116.128 186.744 117.493C188.4 118.857 189.33 120.708 189.33 122.638V131.066C186.398 130.924 183.478 130.697 180.5 130.697C177.522 130.697 174.602 130.924 171.67 131.066V122.638ZM180.5 149.572C212.364 149.599 243.066 159.433 266.585 177.147C290.104 194.862 304.742 219.177 307.63 245.325H300.162C297.283 220.812 283.436 198.059 261.316 181.496C239.196 164.934 210.388 155.747 180.5 155.726C177.462 155.726 174.549 156.72 172.401 158.49C170.254 160.26 169.047 162.66 169.047 165.163C169.047 167.666 170.254 170.067 172.401 171.837C174.549 173.606 177.462 174.601 180.5 174.601C204.306 174.622 227.277 181.83 245.07 194.862C262.863 207.894 274.244 225.847 277.061 245.325H53.3703C56.2576 219.177 70.8964 194.862 94.4153 177.147C117.934 159.433 148.636 149.599 180.5 149.572Z" fill="white"/>
<path d="M319.61 269.901H41.3903C38.3528 269.901 35.4396 270.895 33.2918 272.665C31.1439 274.435 29.9372 276.835 29.9372 279.338C29.9372 281.841 31.1439 284.242 33.2918 286.011C35.4396 287.781 38.3528 288.776 41.3903 288.776H319.61C322.647 288.776 325.56 287.781 327.708 286.011C329.856 284.242 331.063 281.841 331.063 279.338C331.063 276.835 329.856 274.435 327.708 272.665C325.56 270.895 322.647 269.901 319.61 269.901Z" fill="white"/>
<path d="M295.558 296.382L227.985 319.278C223.662 314.347 217.983 310.331 211.414 307.557C204.844 304.783 197.571 303.331 190.189 303.319H171.223C144.698 294.476 126.476 295.948 99.8242 308.84L83.263 316.852C81.0939 315.568 78.4432 314.959 75.7807 315.131C73.1183 315.304 70.616 316.248 68.7175 317.796L33.2815 346.996C31.1344 348.765 29.9282 351.165 29.9282 353.668C29.9282 356.17 31.1344 358.57 33.2815 360.34L97.0754 412.898C99.2232 414.667 102.136 415.661 105.173 415.661C108.21 415.661 111.122 414.667 113.27 412.898L148.706 383.698C149.77 382.818 150.611 381.772 151.18 380.621H225.041C232.388 380.628 239.561 378.784 245.6 375.336L320.125 332.811C325.574 329.672 329.321 324.904 330.568 319.523C331.815 314.141 330.464 308.571 326.802 303.998C323.532 299.886 318.597 296.864 312.875 295.469C307.154 294.074 301.017 294.398 295.558 296.382ZM105.173 392.843L57.5851 353.63L76.8149 337.775L124.38 376.988L105.173 392.843ZM307.091 317.249L232.566 359.774C230.349 361.018 227.724 361.677 225.041 361.661H140.609C139.944 361.719 139.289 361.83 138.65 361.992L100.328 330.48L111.415 325.11C132.683 314.804 143.014 314.068 164.489 321.448C165.894 321.94 167.405 322.194 168.932 322.194H190.201C194.511 322.2 198.74 323.161 202.445 324.976C206.151 326.79 209.196 329.392 211.263 332.509H176.033C172.996 332.509 170.083 333.503 167.935 335.273C165.787 337.043 164.58 339.444 164.58 341.946C164.58 344.449 165.787 346.85 167.935 348.62C170.083 350.39 172.996 351.384 176.033 351.384H225.648C228.686 351.384 231.599 350.39 233.747 348.62C235.895 346.85 237.101 344.449 237.101 341.946C237.036 340.222 236.826 338.503 236.471 336.803L304.652 313.7C305.217 313.491 305.856 313.463 306.445 313.621C307.033 313.78 307.529 314.114 307.834 314.558C308.139 315.002 308.232 315.524 308.095 316.022C307.958 316.52 307.6 316.957 307.091 317.249Z" fill="white"/>
<path d="M65.3961 354.187C65.3788 355.416 65.6643 356.635 66.2352 357.77C66.8061 358.906 67.6505 359.934 68.7175 360.793C69.7782 361.685 71.0432 362.394 72.439 362.88C73.8349 363.366 75.3339 363.619 76.8492 363.624C79.8603 363.555 82.7251 362.539 84.8551 360.784C86.9851 359.029 88.2186 356.668 88.3024 354.187C88.2961 352.938 87.9891 351.703 87.3993 350.553C86.8095 349.403 85.9486 348.36 84.8664 347.486C82.6761 345.803 79.7926 344.867 76.7977 344.867C73.8028 344.867 70.9193 345.803 68.7289 347.486C67.6602 348.364 66.815 349.409 66.2427 350.56C65.6704 351.71 65.3825 352.943 65.3961 354.187Z" fill="white"/>
<path d="M145.751 51.1393C147.259 52.0385 148.382 53.3087 148.958 54.7672C149.535 56.2256 149.535 57.7971 148.958 59.2556L143.552 72.9494C142.797 74.8463 142.791 76.8916 143.536 78.7914C144.28 80.6912 145.736 82.3475 147.695 83.5222C149.654 84.6969 152.015 85.3295 154.438 85.329C156.86 85.3285 159.22 84.6949 161.179 83.5194L175.323 75.0256C176.821 74.128 178.625 73.6444 180.477 73.6444C182.329 73.6444 184.133 74.128 185.631 75.0256L199.776 83.5194C201.734 84.6949 204.094 85.3285 206.517 85.329C208.939 85.3295 211.3 84.6969 213.259 83.5222C215.218 82.3475 216.674 80.6912 217.419 78.7914C218.163 76.8916 218.157 74.8463 217.402 72.9494L211.996 59.265C211.419 57.8052 211.418 56.2321 211.994 54.772C212.571 53.312 213.694 52.0401 215.203 51.1393L229.336 42.6456C231.288 41.4727 232.74 39.8213 233.484 37.9274C234.228 36.0336 234.227 33.9943 233.48 32.1013C232.733 30.2082 231.278 28.5583 229.324 27.3875C227.371 26.2167 225.017 25.5849 222.602 25.5826H205.17C203.309 25.5843 201.495 25.0991 199.991 24.1967C198.486 23.2944 197.368 22.0215 196.798 20.5618L191.392 6.85857C190.639 4.97042 189.181 3.3264 187.228 2.16091C185.274 0.995407 182.923 0.36792 180.511 0.36792C178.099 0.36792 175.749 0.995407 173.795 2.16091C171.841 3.3264 170.384 4.97042 169.631 6.85857L164.225 20.5713C163.653 22.0292 162.534 23.3 161.03 24.2005C159.525 25.1011 157.712 25.585 155.853 25.5826H138.352C135.937 25.5849 133.584 26.2167 131.63 27.3875C129.676 28.5583 128.222 30.2082 127.474 32.1013C126.727 33.9943 126.726 36.0336 127.47 37.9274C128.214 39.8213 129.666 41.4727 131.618 42.6456L145.751 51.1393ZM180.5 34.7841C184.008 38.3667 188.603 41.1212 193.82 42.7682C190.775 46.6207 189.02 51.0683 188.735 55.6599C183.339 54.4784 177.661 54.4784 172.265 55.6599C171.98 51.0683 170.225 46.6207 167.18 42.7682C172.399 41.124 176.995 38.369 180.5 34.7841Z" fill="white"/>
<path d="M24.119 87.3416C24.782 87.7389 25.2754 88.2989 25.5285 88.9414C25.7815 89.5839 25.7813 90.276 25.5278 90.9184L21.439 101.3C20.6875 103.196 20.6845 105.24 21.4305 107.137C22.1764 109.035 23.633 110.689 25.591 111.862C27.549 113.036 29.9077 113.667 32.3286 113.667C34.7495 113.666 37.1079 113.034 39.0654 111.86L49.7397 105.471C50.4039 105.069 51.2064 104.853 52.0303 104.853C52.8543 104.853 53.6567 105.069 54.3209 105.471L65.0067 111.87C66.9641 113.043 69.3226 113.676 71.7434 113.676C74.1643 113.677 76.5231 113.045 78.4811 111.872C80.4391 110.699 81.8957 109.045 82.6416 107.147C83.3876 105.249 83.3846 103.205 82.6331 101.309L78.5672 90.975C78.3119 90.3327 78.3107 89.6402 78.5639 88.9974C78.8171 88.3545 79.3115 87.7945 79.9759 87.3982L90.6617 80.9996C92.6185 79.828 94.075 78.176 94.8223 76.2804C95.5696 74.3847 95.5693 72.3428 94.8216 70.4473C94.0739 68.5518 92.6171 66.9 90.66 65.7287C88.703 64.5574 86.3461 63.9267 83.9273 63.9271H70.6989C69.8793 63.9294 69.08 63.7166 68.417 63.3195C67.7539 62.9225 67.2615 62.3618 67.011 61.7188L62.9222 51.3375C62.1691 49.4494 60.7117 47.8053 58.758 46.6398C56.8042 45.4743 54.4538 44.8469 52.0418 44.8469C49.6298 44.8469 47.2793 45.4743 45.3255 46.6398C43.3718 47.8053 41.9144 49.4494 41.1613 51.3375L37.084 61.7188C36.8353 62.3661 36.3424 62.9312 35.6771 63.3318C35.0117 63.7323 34.2086 63.9475 33.3846 63.946H20.1563C17.7374 63.9456 15.3806 64.5763 13.4235 65.7476C11.4664 66.9189 10.0096 68.5707 9.26188 70.4662C8.51417 72.3617 8.51395 74.4036 9.26125 76.2992C10.0085 78.1949 11.465 79.8469 13.4218 81.0184L24.119 87.3416ZM52.0188 76.5262C53.8487 77.9853 55.9192 79.2244 58.1692 80.2068C57.0709 82.0903 56.2998 84.0918 55.8785 86.1524C53.3637 85.8599 50.8114 85.8599 48.2966 86.1524C47.8607 84.0857 47.0702 82.0806 45.9487 80.1974C48.1727 79.2165 50.2165 77.9805 52.0188 76.5262Z" fill="white"/>
<path d="M281.047 87.3416C281.71 87.7389 282.203 88.2989 282.456 88.9414C282.709 89.584 282.709 90.276 282.456 90.9184L278.378 101.3C277.627 103.196 277.624 105.24 278.37 107.137C279.116 109.035 280.572 110.689 282.53 111.862C284.488 113.036 286.847 113.667 289.268 113.667C291.689 113.666 294.047 113.034 296.005 111.86L306.679 105.471C307.343 105.069 308.146 104.853 308.97 104.853C309.794 104.853 310.596 105.069 311.26 105.471L321.946 111.87C323.902 113.04 326.258 113.67 328.675 113.67C331.092 113.67 333.447 113.04 335.404 111.87C337.364 110.699 338.824 109.046 339.573 107.148C340.322 105.251 340.322 103.206 339.572 101.309L335.484 90.9278C335.228 90.2855 335.227 89.593 335.48 88.9502C335.734 88.3073 336.228 87.7473 336.892 87.351L347.59 80.9524C349.547 79.7803 351.004 78.1275 351.751 76.2309C352.498 74.3344 352.497 72.2916 351.748 70.3956C350.999 68.4997 349.54 66.8479 347.581 65.6773C345.622 64.5068 343.264 63.8776 340.844 63.88H327.638C326.818 63.8813 326.017 63.6683 325.353 63.2715C324.688 62.8747 324.193 62.3146 323.939 61.6716L319.862 51.2903C319.108 49.4022 317.651 47.7582 315.697 46.5927C313.744 45.4272 311.393 44.7997 308.981 44.7997C306.569 44.7997 304.219 45.4272 302.265 46.5927C300.311 47.7582 298.854 49.4022 298.101 51.2903L294.012 61.6716C293.761 62.3147 293.269 62.8753 292.606 63.2724C291.943 63.6694 291.144 63.8822 290.324 63.88H277.096C274.677 63.8796 272.32 64.5102 270.363 65.6815C268.406 66.8528 266.949 68.5046 266.201 70.4001C265.454 72.2956 265.453 74.3375 266.201 76.2332C266.948 78.1288 268.404 79.7808 270.361 80.9524L281.047 87.3416ZM308.97 76.5262C310.794 77.9844 312.861 79.2205 315.109 80.1974C314.007 82.0831 313.236 84.0881 312.818 86.1525C310.303 85.8599 307.751 85.8599 305.236 86.1525C304.796 84.0895 304.006 82.0879 302.888 80.2068C305.116 79.2229 307.164 77.9837 308.97 76.5262Z" fill="white"/>
</svg>
