<svg width="72" height="68" viewBox="0 0 72 68" fill="none" xmlns="http://www.w3.org/2000/svg">
<path d="M70.2 33.0663H64.6164C64.3665 26.8904 62 20.9721 57.8917 16.249C53.7835 11.5259 48.1685 8.26822 41.9364 6.99206C41.9871 6.70455 42.016 6.41383 42.0228 6.12222C42.0717 5.33605 41.9543 4.54848 41.6779 3.80795C41.4015 3.06743 40.9719 2.3896 40.4155 1.81616C39.8591 1.24272 39.1877 0.785779 38.4426 0.47345C37.6975 0.16112 36.8944 0 36.0828 0C35.2711 0 34.4681 0.16112 33.723 0.47345C32.9779 0.785779 32.3065 1.24272 31.7501 1.81616C31.1937 2.3896 30.7641 3.06743 30.4877 3.80795C30.2113 4.54848 30.0939 5.33605 30.1428 6.12222C30.1461 6.41357 30.1713 6.7043 30.2184 6.99206C23.9894 8.27064 18.3783 11.5296 14.274 16.2527C10.1696 20.9758 7.80687 26.8928 7.56 33.0663H1.08C0.793566 33.0663 0.518863 33.1767 0.316324 33.3733C0.113785 33.5698 0 33.8364 0 34.1143C0 34.3922 0.113785 34.6588 0.316324 34.8553C0.518863 35.0519 0.793566 35.1623 1.08 35.1623H70.2C70.4864 35.1623 70.7611 35.0519 70.9637 34.8553C71.1662 34.6588 71.28 34.3922 71.28 34.1143C71.28 33.8364 71.1662 33.5698 70.9637 33.3733C70.7611 33.1767 70.4864 33.0663 70.2 33.0663ZM32.3028 6.14318C32.3749 5.21826 32.8044 4.35392 33.5054 3.72326C34.2063 3.09259 35.1269 2.74217 36.0828 2.74217C37.0387 2.74217 37.9593 3.09259 38.6602 3.72326C39.3612 4.35392 39.7907 5.21826 39.8628 6.14318C39.8787 6.3175 39.8787 6.49285 39.8628 6.66718C37.38 6.33178 34.8612 6.33178 32.3784 6.66718C32.3424 6.49414 32.3172 6.31916 32.3028 6.14318ZM36.0936 8.51166C42.9011 8.52189 49.442 11.0808 54.3532 15.6552C59.2644 20.2295 62.1671 26.4665 62.4564 33.0663H9.72C10.0068 26.4638 12.9102 20.2238 17.8243 15.6486C22.7383 11.0735 29.2834 8.5166 36.0936 8.51166Z" fill="black"/>
<path d="M62.1432 54.0264C60.7812 53.1353 59.1213 52.7795 57.4992 53.0308L43.956 54.8333C43.7743 53.9696 43.3971 53.1559 42.8517 52.4509C42.3063 51.7458 41.6064 51.1672 40.8024 50.7566L29.9484 44.8774C28.5977 44.1255 27.0544 43.762 25.4988 43.8294L14.04 44.4686L14.3316 42.708C14.3547 42.5717 14.3499 42.4323 14.3173 42.2979C14.2847 42.1634 14.225 42.0365 14.1417 41.9245C14.0584 41.8125 13.9531 41.7176 13.8318 41.6452C13.7106 41.5728 13.5758 41.5244 13.4352 41.5028L8.83442 40.7901C8.69397 40.7677 8.55033 40.7725 8.41176 40.8041C8.2732 40.8357 8.14245 40.8936 8.02702 40.9745C7.9116 41.0553 7.81379 41.1575 7.7392 41.2751C7.66462 41.3928 7.61473 41.5236 7.59242 41.66L4.56842 59.9371C4.54559 60.0741 4.55102 60.2141 4.58439 60.349C4.61776 60.484 4.67841 60.6111 4.76282 60.7231C4.93051 60.9474 5.18291 61.0981 5.46482 61.1423L10.0656 61.855H10.2384C10.4973 61.8582 10.7487 61.7711 10.947 61.6095C11.1452 61.4479 11.277 61.2226 11.3184 60.9746V60.6812L32.2488 67.4513C33.0713 67.7142 33.9317 67.8486 34.7976 67.8495C35.4442 67.8559 36.0894 67.7891 36.72 67.6504L59.724 62.4104C60.7555 62.1956 61.7026 61.7 62.4543 60.9817C63.206 60.2634 63.7312 59.3522 63.9684 58.3546C64.1619 57.5386 64.0902 56.6845 63.7634 55.9095C63.4366 55.1346 62.8707 54.4768 62.1432 54.0264ZM9.37442 59.6227L6.90122 59.2664L9.59042 43.0224L12.0636 43.4101L9.37442 59.6227ZM61.8624 57.9145C61.6973 58.5113 61.3644 59.0518 60.9009 59.4756C60.4375 59.8994 59.8618 60.1898 59.238 60.3144L36.2232 65.5544C35.15 65.7964 34.0286 65.7457 32.9832 65.4077L11.7396 58.5957L13.7268 46.5856L25.6068 45.9673C26.7358 45.9175 27.8571 46.1714 28.8468 46.7009L39.7008 52.5802C40.2283 52.8456 40.6887 53.221 41.049 53.6794C41.4094 54.1378 41.6608 54.6678 41.7852 55.2316C41.9084 55.6874 41.876 56.1696 41.693 56.606C41.51 57.0425 41.1861 57.4096 40.77 57.6525C40.1854 58.0032 39.5204 58.2078 38.8343 58.248C38.1483 58.2883 37.4627 58.1629 36.8388 57.883L29.9592 54.9801C29.6957 54.8689 29.3975 54.8639 29.1301 54.966C28.8628 55.0682 28.6482 55.2693 28.5336 55.525C28.419 55.7807 28.4139 56.0701 28.5192 56.3296C28.6245 56.589 28.8317 56.7972 29.0952 56.9084L35.9856 59.8009C36.8265 60.1593 37.7348 60.3448 38.6532 60.3458C39.8381 60.3538 40.9991 60.022 41.9904 59.3922C42.8863 58.8248 43.5389 57.9606 43.8264 56.9608L57.8016 55.0744C58.8796 54.8957 59.9873 55.1204 60.9012 55.7032C61.2875 55.9202 61.5903 56.2535 61.7637 56.6525C61.9372 57.0516 61.9718 57.4946 61.8624 57.9145Z" fill="black"/>
<path d="M31.0392 12.6303C28.673 13.0129 26.4104 13.8541 24.3864 15.1036C24.1915 15.2257 24.0423 15.4055 23.9609 15.6163C23.8795 15.8271 23.8703 16.0578 23.9345 16.2741C23.9987 16.4904 24.133 16.6809 24.3175 16.8174C24.502 16.9539 24.7268 17.0291 24.9588 17.0319C25.1647 17.0345 25.367 16.98 25.542 16.8747C27.3243 15.7775 29.3144 15.0364 31.3956 14.6949C31.5374 14.6722 31.6733 14.6226 31.7953 14.5489C31.9174 14.4753 32.0233 14.379 32.1071 14.2657C32.1908 14.1523 32.2507 14.024 32.2834 13.8882C32.316 13.7523 32.3208 13.6116 32.2974 13.474C32.274 13.3363 32.2229 13.2045 32.147 13.0861C32.0711 12.9676 31.9719 12.8648 31.8551 12.7836C31.7382 12.7023 31.6061 12.6442 31.4661 12.6125C31.3261 12.5808 31.181 12.5762 31.0392 12.5989V12.6303Z" fill="black"/>
<path d="M19.8828 19.0232C18.6974 20.4675 17.7535 22.0837 17.0856 23.8126C17.0355 23.9419 17.0123 24.0796 17.0173 24.2176C17.0222 24.3557 17.0552 24.4915 17.1145 24.6171C17.1737 24.7428 17.2579 24.8558 17.3623 24.9498C17.4667 25.0437 17.5893 25.1167 17.7228 25.1645C17.8446 25.2048 17.9722 25.2261 18.1008 25.2274C18.3215 25.2281 18.5371 25.1632 18.7186 25.0414C18.9001 24.9196 19.0388 24.7468 19.116 24.5462C19.7048 23.032 20.5358 21.6173 21.5784 20.3542C21.7575 20.136 21.8398 19.8577 21.8074 19.5806C21.775 19.3035 21.6305 19.0502 21.4056 18.8765C21.1808 18.7028 20.894 18.6228 20.6085 18.6543C20.3229 18.6857 20.0619 18.826 19.8828 19.0442V19.0232Z" fill="black"/>
</svg>
