<svg xmlns="http://www.w3.org/2000/svg" data-name="Layer 1" viewBox="0 0 100 125" x="0px" y="0px"><title>Artboard 22</title><path d="M82,49H76.83a26.49,26.49,0,0,0-21-24.88,5.69,5.69,0,0,0,.08-.83,5.51,5.51,0,1,0-11,0,5.69,5.69,0,0,0,.07.83A26.48,26.48,0,0,0,24,49H18a1,1,0,0,0,0,2H82a1,1,0,0,0,0-2ZM46.91,23.31a3.51,3.51,0,0,1,7,0,2.83,2.83,0,0,1,0,.5,25.13,25.13,0,0,0-6.93,0A4.21,4.21,0,0,1,46.91,23.31Zm3.51,2.26A24.47,24.47,0,0,1,74.83,49H26A24.46,24.46,0,0,1,50.42,25.57Z"/><path d="M74.54,69a6,6,0,0,0-4.3-.95L57.7,69.77a5.68,5.68,0,0,0-2.92-3.89L44.73,60.27a7.6,7.6,0,0,0-4.12-1L30,59.88l.27-1.68a1,1,0,0,0-.83-1.15l-4.26-.68a1,1,0,0,0-1.15.83l-2.8,17.44a1,1,0,0,0,.18.75,1,1,0,0,0,.65.4l4.26.68h.16a1,1,0,0,0,1-.84l0-.28,19.38,6.46a7.57,7.57,0,0,0,2.36.38A7.7,7.7,0,0,0,51,82l21.3-5a5.14,5.14,0,0,0,3.93-3.87A3.87,3.87,0,0,0,74.54,69ZM25.68,74.34,23.39,74,25.88,58.5l2.29.37Zm48.6-1.63A3.18,3.18,0,0,1,71.85,75l-21.31,5a5.53,5.53,0,0,1-3-.14L27.87,73.36,29.71,61.9l11-.59a5.68,5.68,0,0,1,3,.7l10.05,5.61a3.73,3.73,0,0,1,1.93,2.53,2.08,2.08,0,0,1-.94,2.31,3.85,3.85,0,0,1-3.64.22l-6.37-2.77a1,1,0,1,0-.8,1.84l6.38,2.76a6.16,6.16,0,0,0,2.47.52,5.57,5.57,0,0,0,3.09-.91,4.08,4.08,0,0,0,1.7-2.32L70.52,70a4,4,0,0,1,2.87.6A1.9,1.9,0,0,1,74.28,72.71Z"/><path d="M45.74,29.5a16.54,16.54,0,0,0-6.16,2.36,1,1,0,0,0,.53,1.84,1,1,0,0,0,.54-.15,14.69,14.69,0,0,1,5.42-2.08,1,1,0,0,0-.33-2Z"/><path d="M35.41,35.6a16.8,16.8,0,0,0-2.59,4.57,1,1,0,0,0,.59,1.29,1.12,1.12,0,0,0,.35.06,1,1,0,0,0,.94-.65,14.7,14.7,0,0,1,2.28-4,1,1,0,0,0-1.57-1.25Z"/><text x="0" y="115" fill="#000000" font-size="5px" font-weight="bold" font-family="'Helvetica Neue', Helvetica, Arial-Unicode, Arial, Sans-serif">Created by shwepes</text><text x="0" y="120" fill="#000000" font-size="5px" font-weight="bold" font-family="'Helvetica Neue', Helvetica, Arial-Unicode, Arial, Sans-serif">from the Noun Project</text></svg>