<svg width="70" height="80" viewBox="0 0 239 238" fill="none" xmlns="http://www.w3.org/2000/svg">
<path fill-rule="evenodd" clip-rule="evenodd" d="M97.3491 53.8502H140.251C148.001 53.8728 155.428 56.9617 160.908 62.442C166.388 67.9224 169.477 75.3488 169.5 83.0992V127.801C169.477 135.552 166.388 142.978 160.908 148.458C155.428 153.939 148.001 157.028 140.251 157.05H134.699L117.899 183.75L102.899 157.05H97.3491C89.5987 157.028 82.1723 153.939 76.692 148.458C71.2116 142.978 68.1228 135.552 68.1001 127.801V83.0992C68.1227 75.3488 71.2116 67.9224 76.692 62.442C82.1723 56.9617 89.5987 53.8728 97.3491 53.8502Z" stroke="black" stroke-width="6.9999" stroke-miterlimit="2.6131"/>
<path d="M136.577 103.815C142.915 103.815 148.052 97.7707 148.052 90.3149C148.052 82.8591 142.915 76.8149 136.577 76.8149C130.239 76.8149 125.102 82.8591 125.102 90.3149C125.102 97.7707 130.239 103.815 136.577 103.815Z" stroke="black" stroke-width="6.9999" stroke-miterlimit="2.6131"/>
<path d="M136.577 103.815V133.14" stroke="black" stroke-width="6.9999" stroke-miterlimit="2.6131"/>
<path d="M113.698 77.19V89.1173C113.698 94.4788 108.265 98.8651 101.623 98.8651C94.9821 98.8651 89.5483 94.4788 89.5483 89.1173V77.19" stroke="black" stroke-width="6.9999" stroke-miterlimit="2.6131"/>
<path d="M101.624 77.19V134.49" stroke="black" stroke-width="6.9999" stroke-miterlimit="2.6131"/>
</svg>
