<svg xmlns="http://www.w3.org/2000/svg" viewBox="0 0 64 64"><title>line</title><g id="Waiter"><path d="M50.39089,36.125c-1.96387-1.65356-5.7724-3.47223-11.30969-5.41418C43.60629,27.42267,45.99734,21.08313,45.99734,15V3a.99974.99974,0,0,0-1-1h-14a13.01474,13.01474,0,0,0-13,13c0,6.08313,2.39105,12.42267,6.91614,15.71082-5.53729,1.942-9.34583,3.76062-11.30969,5.41418C8.33067,40.08333,8.99734,61,8.99734,61a.99974.99974,0,0,0,1,1h44a.99974.99974,0,0,0,1-1S55.71609,40.25,50.39089,36.125ZM43.99734,47.62446V60H40.97177a4.949,4.949,0,0,0,1.02542-3.03686A.99184.99184,0,0,0,40.99734,56h-1.0578a7.57422,7.57422,0,0,0-4.9422-6.46594V46a1,1,0,0,0-1-1h-4a1,1,0,0,0-1,1v3.56018A7.58655,7.58655,0,0,0,24.05764,56h-1.0603a.99184.99184,0,0,0-.99984.96313A4.949,4.949,0,0,0,23.02291,60H19.99734V47.62446l-.18094-1.46981-2.51748-10.07a51.2023,51.2023,0,0,1,6.543-2.8631l5.89325,3.6814L26.24,36.02917a.9857.9857,0,0,0-1.24268.96973v4a.99183.99183,0,0,0,1.24268.96973l3.596-.899a2.97807,2.97807,0,0,0,4.32263,0l3.596.899a1.00311,1.00311,0,0,0,1.24268-.96973v-4a.99956.99956,0,0,0-1.24268-.96973l-3.49512.87378,5.89325-3.6814a51.2023,51.2023,0,0,1,6.543,2.8631l-2.51748,10.07Zm-11,1.446a6.73041,6.73041,0,0,0-2,.01044V47h2Zm-1,1.94464A5.62519,5.62519,0,0,1,37.9216,56H26.072C26.80984,53.15625,28.60671,51.01514,31.99734,51.01514Zm0-13.01624a1,1,0,1,1-1,1A1.001,1.001,0,0,1,31.99734,37.9989Zm-3,.78125v.4375l-2,.5v-1.4375Zm6,.4375v-.4375l2-.5v1.4375ZM30.99734,4h13V14H34.39285a9.72338,9.72338,0,0,1-6.76465-2.72119.99138.99138,0,0,0-1.54.19092A5.35445,5.35445,0,0,1,21.52273,14H20.04226A11.01525,11.01525,0,0,1,30.99734,4ZM20.031,16h1.4917A7.33511,7.33511,0,0,0,27.094,13.46436,11.70608,11.70608,0,0,0,34.39285,16h9.5708c-.34406,7.44843-4.50647,15-11.96631,15S20.37509,23.44843,20.031,16ZM36.774,32.03314c.33173.111.66144.22168.97687.33008l-5.75354,3.59406L26.2438,32.36322c.31543-.1084.64514-.21912.97687-.33008A12.16934,12.16934,0,0,0,36.774,32.03314ZM15.51162,37.17883,17.86,46.57354a4.60168,4.60168,0,0,1,.13736,1.11593V60h-6.999C11.00711,54.39063,11.05984,39.875,15.51162,37.17883ZM31.99734,60h-5a3.0062,3.0062,0,0,1-2.8291-2h15.6582a3.0062,3.0062,0,0,1-2.8291,2Zm14,0V47.68947a4.60168,4.60168,0,0,1,.13736-1.11593l2.34836-9.3947C52.85151,39.64583,52.98757,54.39063,52.99636,60Z"/></g></svg>